<svg xmlns="http://www.w3.org/2000/svg" version="1.1" xmlns:xlink="http://www.w3.org/1999/xlink" xmlns:svgjs="http://svgjs.dev/svgjs" viewBox="0 0 600 600" opacity="1"><path d="M327.3087975681523 448.44805094750143C368.53916204976036 467.819780480379 400.6072137058476 526.0658640578529 437.2564294040898 512.8459696486736C473.90564510233196 499.6260752394936 523.5129906833866 418.99779714297665 547.2040917576054 369.1286844924233C570.8951928318241 319.25957184186984 597.9894260268111 260.22815399519016 579.4030358494023 213.63129374535285C560.8166456719933 167.03443349551563 503.6176875929733 99.88783722272908 435.6857506931523 89.54752299339965C367.7538137933313 79.20720876407023 212.7799991469283 100.41139679304159 171.8114144504765 151.5894083693763C130.84282975402468 202.76741994571094 163.95801199482872 347.1391520217202 189.87424251444133 396.6155924514077C215.79047303405397 446.0920328810952 286.07843308654424 429.07632141462375 327.3087975681523 448.44805094750143C368.53916204976036 467.819780480379 400.6072137058476 526.0658640578529 437.2564294040898 512.8459696486736 " fill="#809dd9" stroke-width="0" stroke="hsl(340, 45%, 30%)" transform="matrix(0.9842105586956408,-0.3582233476157223,0.3582233476157223,0.9842105586956408,-118.38880886980922,153.3417816651008)"></path><path d="M227.89514247043365 412.605728330163C269.12550695204175 431.97745786304057 301.19355860812897 490.22354144051457 337.84277430637115 477.00364703133476C374.49199000461334 463.7837526221551 424.09933558566803 383.1554745256382 447.7904366598868 333.2863618750849C471.48153773410553 283.4172492245314 498.5757709290924 224.38583137785176 479.98938075168365 177.78897112801454C461.4029905742748 131.1921108781773 404.20403249525464 64.04551460539084 336.27209559543365 53.70520037606141C268.3401586956127 43.36488614673199 113.36634404920969 64.56907417570335 72.39775935275787 115.74708575203798C31.429174656306053 166.9250973283726 64.54435689711009 311.29682940438175 90.46058741672272 360.77326983406925C116.37681793633536 410.24971026375675 186.6647779888256 393.2339987972853 227.89514247043365 412.605728330163C269.12550695204175 431.97745786304057 301.19355860812897 490.22354144051457 337.84277430637115 477.00364703133476 " fill-opacity="1" fill="#e2e2e2" opacity="1" stroke-opacity="1" stroke-width="0" stroke="hsl(340, 45%, 30%)" transform="matrix(-0.7653855127090027,-0.278577544364653,-0.278577544364653,0.7653855127090027,606.2433291198115,193.14762235854224)"></path></svg>